HIERARCHY
ROOT SpineBase
{
  OFFSET 0.000000 0.000000 0.000000
  CHANNELS 6 Xposition Yposition Zposition Zrotation Xrotation Yrotation
  JOINT SpineMid
  {
    OFFSET 0.000000 28.941562 0.000000
    CHANNELS 3 Zrotation Xrotation Yrotation
    JOINT SpineShoulder
    {
      OFFSET -0.143669 21.600367 -0.640263
      CHANNELS 3 Zrotation Xrotation Yrotation
      JOINT Neck
      {
        OFFSET -0.074259 7.164217 -0.521599
        CHANNELS 3 Zrotation Xrotation Yrotation
        JOINT Head
        {
          OFFSET -2.136242 11.885701 0.692622
          CHANNELS 3 Zrotation Xrotation Yrotation
          End Site
          {
            OFFSET 0 0 0
          }
        }
      }
      JOINT ShoulderLeft
      {
        OFFSET -15.941073 -1.434972 7.039971
        CHANNELS 3 Zrotation Xrotation Yrotation
        JOINT ElbowLeft
        {
          OFFSET -3.553244 -28.670365 2.058361
          CHANNELS 3 Zrotation Xrotation Yrotation
          JOINT WristLeft
          {
            OFFSET -4.434391 -20.544953 -4.551596
            CHANNELS 3 Zrotation Xrotation Yrotation
            JOINT HandLeft
            {
              OFFSET 1.339854 -5.654638 -2.623189
              CHANNELS 3 Zrotation Xrotation Yrotation
              JOINT HandTipLeft
              {
                OFFSET -0.569272 -5.032088 -1.354385
                CHANNELS 3 Zrotation Xrotation Yrotation
                End Site
                {
                  OFFSET 0 0 0
                }
              }
              JOINT ThumbLeft
              {
                OFFSET -2.867390 1.278458 -1.561004
                CHANNELS 3 Zrotation Xrotation Yrotation
                End Site
                {
                  OFFSET 0 0 0
                }
              }
            }
          }
        }
      }
      JOINT ShoulderRight
      {
        OFFSET 14.031751 -1.772501 -6.472573
        CHANNELS 3 Zrotation Xrotation Yrotation
        JOINT ElbowRight
        {
          OFFSET 6.294271 -26.379296 -4.474218
          CHANNELS 3 Zrotation Xrotation Yrotation
          JOINT WristRight
          {
            OFFSET -1.143586 -20.786026 -5.611910
            CHANNELS 3 Zrotation Xrotation Yrotation
            JOINT HandRight
            {
              OFFSET -2.697669 -6.027789 -2.006118
              CHANNELS 3 Zrotation Xrotation Yrotation
              JOINT HandTipRight
              {
                OFFSET -1.555562 -5.425507 -2.464173
                CHANNELS 3 Zrotation Xrotation Yrotation
                End Site
                {
                  OFFSET 0 0 0
                }
              }
              JOINT ThumbRight
              {
                OFFSET 1.225329 -1.375845 -3.590579
                CHANNELS 3 Zrotation Xrotation Yrotation
                End Site
                {
                  OFFSET 0 0 0
                }
              }
            }
          }
        }
      }
    }
  }
  JOINT HipLeft
  {
    OFFSET -5.850772 0.429023 -1.341537
    CHANNELS 3 Zrotation Xrotation Yrotation
    JOINT KneeLeft
    {
      OFFSET -6.033000 -32.428085 2.606704
      CHANNELS 3 Zrotation Xrotation Yrotation
      JOINT AnkleLeft
      {
        OFFSET 2.236512 -34.648546 6.403177
        CHANNELS 3 Zrotation Xrotation Yrotation
        JOINT FootLeft
        {
          OFFSET -2.398669 -6.418455 -7.130267
          CHANNELS 3 Zrotation Xrotation Yrotation
          End Site
          {
            OFFSET 0 0 0
          }
        }
      }
    }
  }
  JOINT HipRight
  {
    OFFSET 5.205095 1.327211 -5.214733
    CHANNELS 3 Zrotation Xrotation Yrotation
    JOINT KneeRight
    {
      OFFSET 4.768484 -30.241967 0.058456
      CHANNELS 3 Zrotation Xrotation Yrotation
      JOINT AnkleRight
      {
        OFFSET 0.692646 -36.695412 6.281096
        CHANNELS 3 Zrotation Xrotation Yrotation
        JOINT FootRight
        {
          OFFSET -4.960559 -3.952266 -10.224263
          CHANNELS 3 Zrotation Xrotation Yrotation
          End Site
          {
            OFFSET 0 0 0
          }
        }
      }
    }
  }
}
MOTION
Frames: 11
Frame Time: 0.033333
28.146529 109.037126 359.566224 1.200002 -4.554599 8.323178 -0.424400 -0.631531 -8.266662 0.605395 -0.406029 0.035284 -0.040112 12.106877 0.876960 0.000000 0.000000 0.000000 -35.992414 -43.227739 -8.169284 19.292243 34.215091 -1.587912 15.514292 12.923683 -8.049018 -7.942860 8.646633 1.714176 0.000000 0.000000 0.000000 0.000000 0.000000 0.000000 48.960838 -14.996522 -8.994390 -36.095040 24.076149 6.386388 -0.455519 -19.972041 7.345800 1.167162 -14.832439 3.163954 0.000000 0.000000 0.000000 0.000000 0.000000 0.000000 2.610077 13.520382 -10.340226 24.413464 -43.002614 14.731978 -7.785433 1.931078 2.462780 0.000000 0.000000 0.000000 4.283868 33.505374 -5.179049 8.022119 -62.343785 3.368115 -7.651902 39.502798 -8.752993 0.000000 0.000000 0.000000
28.278347 108.413789 359.875466 1.486324 -5.479080 8.262741 -0.367575 -0.710799 -8.176900 0.530722 -0.525835 0.041621 -1.303124 11.959842 0.879290 0.000000 0.000000 0.000000 -32.690360 -42.750771 -6.149763 19.254129 31.974668 -2.785042 29.317321 18.903740 -17.978342 -23.651690 -1.634689 5.181108 0.000000 0.000000 0.000000 0.000000 0.000000 0.000000 47.660449 -16.598530 -9.353186 -36.813001 22.786983 8.643482 -5.132967 -19.295656 8.502784 3.621345 -14.786967 1.070750 0.000000 0.000000 0.000000 0.000000 0.000000 0.000000 2.284290 13.359503 -10.022018 18.824742 -37.844266 10.528381 -2.321303 -8.919092 1.007751 0.000000 0.000000 0.000000 3.817747 30.577383 -5.539266 9.824298 -53.524035 4.529016 -5.624101 28.499530 -11.606884 0.000000 0.000000 0.000000
28.414198 107.076857 360.148131 1.974503 -6.641324 9.288068 -0.313399 -0.747271 -9.147791 0.299743 -0.549311 0.055404 -2.739332 12.396852 1.024612 0.000000 0.000000 0.000000 -29.289019 -42.017294 -4.094091 19.803630 32.390202 -4.756768 31.417136 28.918904 -18.781233 -20.784676 -9.477658 0.260409 0.000000 0.000000 0.000000 0.000000 0.000000 0.000000 46.136060 -17.885238 -9.839977 -38.357865 22.767951 10.977656 -9.499469 -19.337741 9.407243 6.503604 -12.968690 -1.905745 0.000000 0.000000 0.000000 0.000000 0.000000 0.000000 1.841125 12.719955 -10.611264 11.745130 -27.704658 5.647244 1.171097 -13.728326 -0.648710 0.000000 0.000000 0.000000 4.136724 27.215044 -7.294229 8.589927 -42.652224 3.456517 -4.108669 18.304871 -12.585405 0.000000 0.000000 0.000000
28.642187 104.381884 360.405426 2.701857 -7.877601 10.281041 -0.281268 -0.746892 -10.050756 0.142155 -0.544336 0.083651 -5.838071 12.425172 1.472439 0.000000 0.000000 0.000000 -26.415367 -40.214579 -2.139810 21.053212 33.812215 -7.322455 24.546077 36.128513 -13.069720 -13.960840 -13.958554 -3.867541 0.000000 0.000000 0.000000 0.000000 0.000000 0.000000 44.192066 -19.236525 -10.321033 -40.705591 23.638508 13.686886 -11.118418 -15.774689 7.696985 6.444757 -11.623944 -1.532075 0.000000 0.000000 0.000000 0.000000 0.000000 0.000000 1.476665 12.338212 -11.185842 5.727965 -17.685012 2.552755 2.161980 -8.284482 -3.124374 0.000000 0.000000 0.000000 4.083491 24.353323 -8.857671 6.895280 -32.369748 2.295285 -3.825399 11.680670 -11.234169 0.000000 0.000000 0.000000
28.999667 100.067309 360.706489 3.071549 -9.028066 10.717961 -0.254035 -0.675027 -10.426270 0.013742 -0.466678 0.096233 -6.631429 10.876662 1.169241 0.000000 0.000000 0.000000 -23.957202 -37.928562 -0.669483 22.594972 34.571837 -9.801237 13.999240 43.376452 -4.472322 -5.397901 -17.913777 -7.416033 0.000000 0.000000 0.000000 0.000000 0.000000 0.000000 42.129730 -19.102674 -10.847793 -41.924531 23.782927 15.346801 -10.494164 -11.896390 5.625599 2.476911 -7.475570 -0.080751 0.000000 0.000000 0.000000 0.000000 0.000000 0.000000 1.119098 11.969327 -11.217933 2.326766 -9.475788 1.144643 1.937109 -4.925160 -3.078056 0.000000 0.000000 0.000000 4.114105 22.350341 -9.708472 6.079455 -24.634463 1.850401 -1.581444 2.350787 -12.919608 0.000000 0.000000 0.000000
29.513016 93.974846 361.328142 3.150746 -10.245466 10.976623 -0.239490 -0.521537 -10.651200 -0.079478 -0.266560 0.093626 -5.627678 9.970590 0.643508 0.000000 0.000000 0.000000 -22.535781 -34.188437 0.272426 24.960711 34.083553 -12.089920 -4.529954 42.710690 9.256222 6.484382 -10.650365 -10.136236 0.000000 0.000000 0.000000 0.000000 0.000000 0.000000 39.934740 -17.148080 -11.441019 -41.514861 22.448765 15.603603 -8.028181 -6.299309 2.657417 -2.289528 -4.510228 2.016905 0.000000 0.000000 0.000000 0.000000 0.000000 0.000000 0.592640 12.554009 -11.241183 1.295525 -4.527483 0.759497 0.823358 2.441262 -4.295430 0.000000 0.000000 0.000000 4.735784 21.975999 -10.322330 3.928600 -18.679598 0.891257 1.115458 -5.139838 -13.728552 0.000000 0.000000 0.000000
30.234734 86.669260 362.188256 3.274377 -11.442028 10.626545 -0.220267 -0.279692 -10.260798 -0.111148 -0.026116 0.091816 -4.277495 8.715129 -0.030106 0.000000 0.000000 0.000000 -21.302369 -29.196247 1.073579 24.326042 32.625984 -11.559776 -16.086336 32.650942 15.935727 14.410409 -3.936634 -11.209232 0.000000 0.000000 0.000000 0.000000 0.000000 0.000000 36.448246 -12.885897 -11.861640 -37.393334 20.386906 13.299239 -4.120027 -3.648866 0.533535 -4.859804 0.003635 1.779494 0.000000 0.000000 0.000000 0.000000 0.000000 0.000000 -0.136994 14.093383 -10.806959 1.718989 -3.010947 0.872727 -3.901374 13.809721 -2.844608 0.000000 0.000000 0.000000 5.381315 23.880734 -10.137914 1.627221 -16.536524 -0.102715 4.244108 -12.336050 -12.194850 0.000000 0.000000 0.000000
30.594493 78.313795 362.019431 2.774837 -11.183640 9.233319 -0.287749 -0.112774 -8.934219 -0.128012 0.078109 0.066853 0.067440 6.068659 -1.260639 0.000000 0.000000 0.000000 -19.744633 -22.909385 1.314716 22.958397 27.800437 -9.665873 -28.067726 21.720680 21.191276 23.496896 1.882340 -13.111360 0.000000 0.000000 0.000000 0.000000 0.000000 0.000000 30.930295 -6.892686 -10.878832 -28.868789 16.454418 8.987738 3.374007 -0.020103 -3.259367 -5.993578 -0.232001 1.775341 0.000000 0.000000 0.000000 0.000000 0.000000 0.000000 -2.199175 14.949280 -9.325419 5.765358 -5.014441 1.692583 -6.760255 22.188397 -3.652154 0.000000 0.000000 0.000000 6.954737 25.253964 -9.031847 -0.379438 -18.360681 -0.731147 2.916476 -5.140265 -15.296085 0.000000 0.000000 0.000000
31.311772 71.010533 363.483717 2.621558 -12.763665 8.694659 -0.304090 -0.155758 -8.384371 -0.072879 0.043534 0.053441 2.961454 5.509153 -2.236275 0.000000 0.000000 0.000000 -17.683373 -13.435618 2.252190 20.443902 22.439208 -7.258655 -34.490291 12.184193 22.000002 26.448475 8.895416 -14.162074 0.000000 0.000000 0.000000 0.000000 0.000000 0.000000 24.696057 0.422062 -10.217124 -20.391180 13.345040 5.133794 7.204539 -0.240713 -4.461834 -2.451420 -0.869775 0.194219 0.000000 0.000000 0.000000 0.000000 0.000000 0.000000 -4.800805 22.141466 -9.074492 12.771777 -12.934322 4.702369 -7.919519 26.952307 -6.043359 0.000000 0.000000 0.000000 8.596595 32.727095 -8.675673 -1.391613 -26.212783 -1.721115 1.151375 4.510035 -17.024212 0.000000 0.000000 0.000000
32.280139 65.267543 366.185645 3.112697 -15.862818 8.946772 -0.173667 -0.236975 -8.508949 0.031140 0.083560 0.061488 2.550742 7.184988 -2.647828 0.000000 0.000000 0.000000 -16.747487 -3.122650 3.250428 18.183348 17.632854 -5.278803 -31.568346 7.455936 18.221648 20.471461 18.836064 -12.329813 0.000000 0.000000 0.000000 0.000000 0.000000 0.000000 17.184665 8.871227 -8.847593 -12.773678 9.590222 2.318114 10.852584 0.018862 -5.722148 0.491843 -4.936988 0.810640 0.000000 0.000000 0.000000 0.000000 0.000000 0.000000 -8.052548 34.144111 -9.142716 21.625690 -23.274569 10.510811 -8.129019 26.444324 -7.960965 0.000000 0.000000 0.000000 9.106285 44.480459 -8.794351 -0.497816 -38.229844 -2.517143 -1.390766 15.172649 -16.764047 0.000000 0.000000 0.000000
33.713162 61.894803 370.801519 4.358456 -21.260708 10.057843 -0.390561 -0.188506 -9.195148 -0.184392 0.860143 0.086799 2.944926 10.756584 -3.333461 0.000000 0.000000 0.000000 -15.377593 8.139108 4.197122 14.683581 13.585635 -3.435455 -21.076876 5.252948 11.952904 7.273463 18.900493 -7.552753 0.000000 0.000000 0.000000 0.000000 0.000000 0.000000 10.197959 18.160307 -6.711017 -6.257374 4.960297 0.351822 10.283294 1.328906 -5.958776 4.283213 -11.399637 3.148290 0.000000 0.000000 0.000000 0.000000 0.000000 0.000000 -10.526051 51.714285 -9.467577 32.145398 -34.995899 20.355776 -7.522969 21.309960 -8.995130 0.000000 0.000000 0.000000 8.638287 60.335608 -9.174896 2.318801 -51.564235 -2.711436 -0.961466 16.833171 -17.270219 0.000000 0.000000 0.000000
